<svg width="22" height="22" viewBox="0 0 22 22" fill="none" xmlns="http://www.w3.org/2000/svg">
<g id="Frame" clip-path="url(#clip0_3299_3061)">
<path id="Vector" d="M15.5833 9.08391C15.5833 8.43552 15.3257 7.81369 14.8673 7.35521C14.4088 6.89673 13.787 6.63916 13.1386 6.63916H5.19473C4.87368 6.63916 4.55578 6.7024 4.25916 6.82526C3.96255 6.94812 3.69305 7.12819 3.46603 7.35521C3.23902 7.58223 3.05894 7.85173 2.93607 8.14834C2.81321 8.44496 2.74998 8.76286 2.74998 9.08391V17.0277C2.74998 17.3488 2.81321 17.6667 2.93607 17.9633C3.05894 18.2599 3.23902 18.5294 3.46603 18.7564C3.69305 18.9835 3.96255 19.1635 4.25916 19.2864C4.55578 19.4093 4.87368 19.4725 5.19473 19.4725H13.1386C13.4596 19.4725 13.7775 19.4093 14.0741 19.2864C14.3707 19.1635 14.6402 18.9835 14.8673 18.7564C15.0943 18.5294 15.2744 18.2599 15.3972 17.9633C15.5201 17.6667 15.5833 17.3488 15.5833 17.0277V9.08391Z" stroke="white" stroke-opacity="0.7" stroke-width="1.5" stroke-linecap="round" stroke-linejoin="round"/>
<path id="Vector_2" d="M18.3223 15.5644C18.6034 15.4042 18.8373 15.1725 19.0001 14.893C19.163 14.6134 19.2492 14.2957 19.25 13.9722V4.8055C19.25 3.79717 18.425 2.97217 17.4167 2.97217H8.25C7.5625 2.97217 7.1885 3.32508 6.875 3.88883" stroke="white" stroke-opacity="0.7" stroke-width="1.5" stroke-linecap="round" stroke-linejoin="round"/>
</g>
<defs>
<clipPath id="clip0_3299_3061">
<rect width="22" height="22" fill="white" transform="matrix(-1 0 0 1 22 0)"/>
</clipPath>
</defs>
</svg>
