<svg width="257" height="55" viewBox="0 0 257 55" fill="none" xmlns="http://www.w3.org/2000/svg">
<path d="M26 0C11.663 0 0 12.2225 0 27.2444C0 42.2675 11.6625 54.4888 26 54.4888C40.3369 54.4888 52 42.2657 52 27.2444C52.0017 12.2213 40.3375 0 26 0ZM27.6123 1.34651C39.9844 2.1828 49.9066 12.5763 50.7127 25.5381C50.7523 26.1825 50.2654 26.7318 49.6482 26.7318C49.0901 26.7318 48.6251 26.2794 48.5895 25.6952C47.8562 13.8403 38.7798 4.33548 27.4641 3.57319C26.906 3.53589 26.4743 3.04856 26.4743 2.46376C26.4743 1.81759 26.9968 1.305 27.6117 1.34651M7.93671 27.2438C7.93671 16.8076 16.0399 8.31657 25.9994 8.31657C35.9589 8.31657 44.0621 16.8076 44.0621 27.2438C44.0621 37.68 35.9589 46.1705 25.9994 46.1705C16.0399 46.1705 7.93671 37.68 7.93671 27.2438ZM11.2284 41.7965C10.7886 42.2567 10.0634 42.2278 9.66151 41.7303C6.49613 37.8184 4.58243 32.7621 4.58243 27.242C4.58243 21.7917 6.44904 16.7914 9.5438 12.8999C9.944 12.3964 10.6732 12.3651 11.1147 12.8277C11.5029 13.2344 11.5304 13.8812 11.1796 14.3228C8.39087 17.828 6.71145 22.3326 6.71145 27.2414C6.71145 32.2128 8.43624 36.7691 11.2881 40.2923C11.6453 40.7346 11.6194 41.3891 11.229 41.7958M40.589 40.4433C43.5138 36.899 45.288 32.285 45.288 27.2438C45.288 22.264 43.5574 17.7017 40.6975 14.176C40.3404 13.7362 40.3662 13.0816 40.7567 12.6725C41.1965 12.2123 41.9199 12.2411 42.3236 12.7387C45.4987 16.653 47.4187 21.7171 47.4187 27.2438C47.4187 32.8409 45.4493 37.961 42.2053 41.8951C41.8011 42.3867 41.0817 42.4138 40.6441 41.9553C40.2497 41.542 40.2261 40.8838 40.589 40.4433ZM39.8265 10.1239C40.3013 10.5451 40.3289 11.305 39.8897 11.7658C39.4992 12.1749 38.8763 12.2014 38.4566 11.8278C35.0919 8.83943 30.7455 7.03026 25.9994 7.03026C21.1879 7.03026 16.7852 8.88874 13.4028 11.9541C12.9831 12.3338 12.3544 12.3097 11.9622 11.8982C11.5247 11.4397 11.5505 10.6859 12.0196 10.2623C15.7747 6.86061 20.6608 4.79934 26.0023 4.79934C31.2686 4.79934 36.0939 6.80704 39.8271 10.1239M24.1001 1.36875C24.719 1.31941 25.249 1.83322 25.249 2.4842C25.249 3.06479 24.8235 3.54793 24.2712 3.59305C13.0795 4.48108 4.13916 13.93 3.4117 25.6922C3.3761 26.2764 2.91103 26.7288 2.35294 26.7288C1.73628 26.7288 1.24938 26.1813 1.28843 25.5369C2.08882 12.6761 11.8629 2.34463 24.0989 1.36816M24.0989 53.1177C11.9473 52.1466 2.22432 41.9523 1.30393 29.2172C1.25685 28.5686 1.74719 28.0151 2.36844 28.0151C2.92251 28.0151 3.38528 28.4609 3.42662 29.0397C4.26433 40.6864 13.1553 50.0114 24.27 50.8952C24.8218 50.9385 25.2479 51.424 25.2479 52.004C25.2479 52.6526 24.7173 53.167 24.0989 53.1171M12.1563 44.345C11.6831 43.9239 11.6533 43.1658 12.0931 42.705C12.4835 42.2958 13.1082 42.2693 13.528 42.643C16.8926 45.6398 21.2465 47.4532 25.9988 47.4532C30.684 47.4532 34.9828 45.6915 38.3274 42.7711C38.7494 42.4035 39.366 42.4348 39.7542 42.8391C40.1957 43.3018 40.1658 44.0659 39.6853 44.4852C35.9721 47.7281 31.2002 49.6841 25.9988 49.6841C20.7245 49.6841 15.8912 47.6721 12.1563 44.345ZM27.6111 53.1393C26.9962 53.1808 26.4737 52.67 26.4737 52.0239C26.4737 51.4391 26.9078 50.9523 27.4653 50.915C38.7023 50.1588 47.7311 40.7803 48.5751 29.0409C48.6164 28.4627 49.0781 28.0169 49.6316 28.0169C50.2522 28.0169 50.7414 28.5723 50.6961 29.2208C49.7676 42.0528 39.8989 52.3072 27.6117 53.1399L27.6111 53.1393Z" fill="url(#paint0_radial_550_360)"/>
<path d="M14.7945 19.784L21.4548 29.9254L14.3317 40.7725H23.0631L25.8208 36.5736L28.578 40.7725H33.8385L20.055 19.784H14.7945ZM29.1871 39.5578L25.8208 34.4335L22.4545 39.5578H16.5313L22.8581 29.9248L16.9941 20.9963H19.4458L31.6366 39.5595H29.1866V39.5571L29.1871 39.5578Z" fill="url(#paint1_linear_550_360)"/>
<path d="M29.4174 29.8177L33.2098 24.0449L34.3668 22.2808V19.716L33.2098 21.4776L28.574 28.535L28.028 27.7029L33.2098 19.8153L34.3668 18.053V15.4858L33.2098 17.248L27.1862 26.4202L26.6109 25.5442L33.2098 15.4967L34.3668 13.7344V11.2189H34.3334L33.2098 12.9312L25.7675 24.2614L22.8622 19.8375H21.4566L25.0658 25.3318L25.907 26.6139L26.4829 27.4899L27.3263 28.7726L27.8724 29.6047L28.7158 30.8874L35.1867 40.7412H36.5922L29.4174 29.8177Z" fill="url(#paint2_linear_550_360)"/>
<path d="M62.04 31.4155C61.5067 31.4155 61.0133 31.2821 60.56 31.0155C60.1067 30.7488 59.7467 30.3888 59.48 29.9355C59.2133 29.4821 59.08 28.9888 59.08 28.4555V27.1155H62.18V28.2955H70.34V25.7755H62.04C61.5067 25.7755 61.0133 25.6421 60.56 25.3755C60.1067 25.1088 59.7467 24.7555 59.48 24.3155C59.2133 23.8621 59.08 23.3621 59.08 22.8155V19.9755C59.08 19.4288 59.2133 18.9355 59.48 18.4955C59.7467 18.0421 60.1067 17.6821 60.56 17.4155C61.0133 17.1488 61.5067 17.0155 62.04 17.0155H70.52C71.0533 17.0155 71.54 17.1488 71.98 17.4155C72.4333 17.6821 72.7933 18.0421 73.06 18.4955C73.34 18.9355 73.48 19.4288 73.48 19.9755V21.3155H70.34V20.1355H62.18V22.6555H70.52C71.0533 22.6555 71.54 22.7888 71.98 23.0555C72.4333 23.3221 72.7933 23.6821 73.06 24.1355C73.34 24.5755 73.48 25.0688 73.48 25.6155V28.4555C73.48 28.9888 73.34 29.4821 73.06 29.9355C72.7933 30.3888 72.4333 30.7488 71.98 31.0155C71.54 31.2821 71.0533 31.4155 70.52 31.4155H62.04ZM75.6825 31.4155V17.0355H87.1025C87.6492 17.0355 88.1425 17.1688 88.5825 17.4355C89.0358 17.7021 89.3958 18.0621 89.6625 18.5155C89.9425 18.9688 90.0825 19.4621 90.0825 19.9955V23.7155C90.0825 24.2488 89.9425 24.7421 89.6625 25.1955C89.3958 25.6488 89.0358 26.0088 88.5825 26.2755C88.1425 26.5421 87.6492 26.6755 87.1025 26.6755L78.7825 26.6955V31.4155H75.6825ZM78.7825 23.5555H86.9425V20.1355H78.7825V23.5555ZM91.5428 31.4155V17.0155H104.843V20.1355H94.6828V22.6555H102.863V25.7755H94.6828V28.2955H104.843V31.4155H91.5428ZM109.775 31.4155C109.229 31.4155 108.729 31.2821 108.275 31.0155C107.835 30.7488 107.482 30.3955 107.215 29.9555C106.949 29.5021 106.815 29.0021 106.815 28.4555V19.9755C106.815 19.4288 106.949 18.9355 107.215 18.4955C107.482 18.0421 107.835 17.6821 108.275 17.4155C108.729 17.1488 109.229 17.0155 109.775 17.0155H121.175V20.1355H110.575C110.362 20.1355 110.195 20.1888 110.075 20.2955C109.969 20.4021 109.915 20.5688 109.915 20.7955V27.6355C109.915 27.8488 109.969 28.0155 110.075 28.1355C110.195 28.2421 110.362 28.2955 110.575 28.2955H121.175V31.4155H109.775ZM122.761 31.4155V17.0155H125.821V31.4155H122.761ZM127.578 31.4155V19.9755C127.578 19.4288 127.711 18.9355 127.978 18.4955C128.245 18.0421 128.605 17.6821 129.058 17.4155C129.511 17.1488 130.005 17.0155 130.538 17.0155H138.998C139.545 17.0155 140.038 17.1488 140.478 17.4155C140.931 17.6821 141.291 18.0421 141.558 18.4955C141.838 18.9355 141.978 19.4288 141.978 19.9755V31.4155H138.838V26.7755H130.678V31.4155H127.578ZM130.678 23.6555H138.838V20.1355H130.678V23.6555ZM144.277 31.4155V16.9955H147.377V28.2955H158.677V31.4155H144.277ZM159.843 31.4155V17.0155H163.043L167.923 22.8355L172.783 17.0155H176.003V31.4155H172.883V21.7555L167.923 27.6755L162.943 21.7755V31.4155H159.843ZM178.437 31.4155V17.0155H191.737V20.1355H181.577V22.6555H189.757V25.7755H181.577V28.2955H191.737V31.4155H178.437ZM198.63 31.4155V20.1355H192.99V17.0155H207.39V20.1355H201.75V31.4155H198.63ZM208.926 31.4155V19.9755C208.926 19.4288 209.059 18.9355 209.326 18.4955C209.592 18.0421 209.952 17.6821 210.406 17.4155C210.859 17.1488 211.352 17.0155 211.886 17.0155H220.346C220.892 17.0155 221.386 17.1488 221.826 17.4155C222.279 17.6821 222.639 18.0421 222.906 18.4955C223.186 18.9355 223.326 19.4288 223.326 19.9755V31.4155H220.186V26.7755H212.026V31.4155H208.926ZM212.026 23.6555H220.186V20.1355H212.026V23.6555ZM225.624 31.4155V16.9955H228.724V28.2955H240.024V31.4155H225.624ZM240.99 31.4155V30.3555L246.13 24.2155L240.99 18.0755V17.0155H244.21L248.21 21.7555L252.17 17.0155H255.39V18.0755L250.23 24.2155L255.39 30.3355V31.4155H252.17L248.17 26.6955L244.21 31.4155H240.99Z" fill="white"/>
<defs>
<radialGradient id="paint0_radial_550_360" cx="0" cy="0" r="1" gradientUnits="userSpaceOnUse" gradientTransform="translate(26.0185 27.2231) scale(187.357 196.332)">
<stop stop-color="#695919"/>
<stop offset="0.6" stop-color="#AE902C"/>
<stop offset="1" stop-color="#D4AE36"/>
</radialGradient>
<linearGradient id="paint1_linear_550_360" x1="24.0851" y1="19.784" x2="24.0851" y2="40.7725" gradientUnits="userSpaceOnUse">
<stop stop-color="#AE902C"/>
<stop offset="0.426082" stop-color="#695919"/>
<stop offset="1" stop-color="#D4AE36"/>
</linearGradient>
<linearGradient id="paint2_linear_550_360" x1="29.0244" y1="11.2189" x2="29.0244" y2="40.7412" gradientUnits="userSpaceOnUse">
<stop stop-color="#D4AE36"/>
<stop offset="0.496676" stop-color="#695919"/>
<stop offset="1" stop-color="#AE902C"/>
</linearGradient>
</defs>
</svg>
