<svg width="30" height="28" viewBox="0 0 30 28" fill="none" xmlns="http://www.w3.org/2000/svg">
<g id="Group 2">
<g id="Group">
<path id="Vector" d="M27.6015 1.00006L16.6811 9.1334L18.712 4.33339L27.6015 1.00006Z" fill="#E17726" stroke="#E17726" stroke-width="0.3378" stroke-linecap="round" stroke-linejoin="round"/>
<g id="Group_2">
<path id="Vector_2" d="M2.36511 1.00012L13.2189 9.20013L11.2878 4.33346L2.36511 1.00012Z" fill="#E27625" stroke="#E27625" stroke-width="0.3378" stroke-linecap="round" stroke-linejoin="round"/>
<path id="Vector_3" d="M23.6728 19.8334L20.743 24.3001L27.0022 26.0334L28.7667 19.9334L23.6728 19.8334Z" fill="#E27625" stroke="#E27625" stroke-width="0.3378" stroke-linecap="round" stroke-linejoin="round"/>
<path id="Vector_4" d="M1.23294 19.9334L2.99751 26.0334L9.22343 24.3001L6.32688 19.8334L1.23294 19.9334Z" fill="#E27625" stroke="#E27625" stroke-width="0.3378" stroke-linecap="round" stroke-linejoin="round"/>
<path id="Vector_5" d="M8.89048 12.3001L7.15921 14.9334L13.3185 15.2001L13.1188 8.53339L8.89048 12.3001Z" fill="#E27625" stroke="#E27625" stroke-width="0.3378" stroke-linecap="round" stroke-linejoin="round"/>
<path id="Vector_6" d="M21.1092 12.3001L16.8144 8.46674L16.6812 15.2001L22.8405 14.9334L21.1092 12.3001Z" fill="#E27625" stroke="#E27625" stroke-width="0.3378" stroke-linecap="round" stroke-linejoin="round"/>
<path id="Vector_7" d="M9.22342 24.3L12.9523 22.5L9.72282 19.9667L9.22342 24.3Z" fill="#E27625" stroke="#E27625" stroke-width="0.3378" stroke-linecap="round" stroke-linejoin="round"/>
<path id="Vector_8" d="M17.0474 22.5L20.743 24.3L20.2436 19.9667L17.0474 22.5Z" fill="#E27625" stroke="#E27625" stroke-width="0.3378" stroke-linecap="round" stroke-linejoin="round"/>
</g>
<g id="Group_3">
<path id="Vector_9" d="M20.743 24.3L17.0474 22.5L17.347 24.9L17.3137 25.9333L20.743 24.3Z" fill="#D5BFB2" stroke="#D5BFB2" stroke-width="0.3378" stroke-linecap="round" stroke-linejoin="round"/>
<path id="Vector_10" d="M9.22339 24.3L12.6859 25.9333L12.6526 24.9L12.9523 22.5L9.22339 24.3Z" fill="#D5BFB2" stroke="#D5BFB2" stroke-width="0.3378" stroke-linecap="round" stroke-linejoin="round"/>
</g>
<path id="Vector_11" d="M12.7526 18.3667L9.65625 17.4667L11.8203 16.4667L12.7526 18.3667Z" fill="#233447" stroke="#233447" stroke-width="0.3378" stroke-linecap="round" stroke-linejoin="round"/>
<path id="Vector_12" d="M17.2473 18.3667L18.1462 16.4667L20.3436 17.4667L17.2473 18.3667Z" fill="#233447" stroke="#233447" stroke-width="0.3378" stroke-linecap="round" stroke-linejoin="round"/>
<g id="Group_4">
<path id="Vector_13" d="M9.22346 24.3L9.75615 19.8334L6.3269 19.9334L9.22346 24.3Z" fill="#CC6228" stroke="#CC6228" stroke-width="0.3378" stroke-linecap="round" stroke-linejoin="round"/>
<path id="Vector_14" d="M20.2437 19.8334L20.7431 24.3L23.6729 19.9334L20.2437 19.8334Z" fill="#CC6228" stroke="#CC6228" stroke-width="0.3378" stroke-linecap="round" stroke-linejoin="round"/>
<path id="Vector_15" d="M22.8407 14.9333L16.6814 15.2L17.2474 18.3667L18.1463 16.4667L20.3437 17.4667L22.8407 14.9333Z" fill="#CC6228" stroke="#CC6228" stroke-width="0.3378" stroke-linecap="round" stroke-linejoin="round"/>
<path id="Vector_16" d="M9.65657 17.4667L11.8207 16.4667L12.7529 18.3667L13.3189 15.2L7.15955 14.9333L9.65657 17.4667Z" fill="#CC6228" stroke="#CC6228" stroke-width="0.3378" stroke-linecap="round" stroke-linejoin="round"/>
</g>
<g id="Group_5">
<path id="Vector_17" d="M7.15942 14.9333L9.72304 19.9666L9.65645 17.4666L7.15942 14.9333Z" fill="#E27525" stroke="#E27525" stroke-width="0.3378" stroke-linecap="round" stroke-linejoin="round"/>
<path id="Vector_18" d="M20.3437 17.4667L20.2438 19.9667L22.8407 14.9333L20.3437 17.4667Z" fill="#E27525" stroke="#E27525" stroke-width="0.3378" stroke-linecap="round" stroke-linejoin="round"/>
<path id="Vector_19" d="M13.3187 15.2001L12.7527 18.3667L13.4519 22.1334L13.6183 17.1667L13.3187 15.2001Z" fill="#E27525" stroke="#E27525" stroke-width="0.3378" stroke-linecap="round" stroke-linejoin="round"/>
<path id="Vector_20" d="M16.6815 15.2001L16.3818 17.1667L16.515 22.1334L17.2475 18.3667L16.6815 15.2001Z" fill="#E27525" stroke="#E27525" stroke-width="0.3378" stroke-linecap="round" stroke-linejoin="round"/>
</g>
<path id="Vector_21" d="M17.2474 18.3667L16.5149 22.1333L17.0476 22.5L20.2438 19.9667L20.3437 17.4667L17.2474 18.3667Z" fill="#F5841F" stroke="#F5841F" stroke-width="0.3378" stroke-linecap="round" stroke-linejoin="round"/>
<path id="Vector_22" d="M9.65625 17.4667L9.72284 19.9667L12.9523 22.5L13.4517 22.1333L12.7526 18.3667L9.65625 17.4667Z" fill="#F5841F" stroke="#F5841F" stroke-width="0.3378" stroke-linecap="round" stroke-linejoin="round"/>
<path id="Vector_23" d="M17.3138 25.9333L17.3471 24.9L17.0474 24.6667H12.919L12.6526 24.9L12.6859 25.9333L9.22339 24.3L10.422 25.3L12.8857 27H17.0807L19.5444 25.3L20.743 24.3L17.3138 25.9333Z" fill="#C0AC9D" stroke="#C0AC9D" stroke-width="0.3378" stroke-linecap="round" stroke-linejoin="round"/>
<path id="Vector_24" d="M17.0476 22.4999L16.5149 22.1332H13.4519L12.9525 22.4999L12.6528 24.8999L12.9192 24.6666H17.0476L17.3472 24.8999L17.0476 22.4999Z" fill="#161616" stroke="#161616" stroke-width="0.3378" stroke-linecap="round" stroke-linejoin="round"/>
<g id="Group_6">
<path id="Vector_25" d="M28.0678 9.66673L29 5.16673L27.6017 1.00006L17.0476 8.86673L21.1094 12.3001L26.836 13.9667L28.1011 12.5001L27.5684 12.1001L28.4341 11.3001L27.7682 10.7667L28.6338 10.1001L28.0678 9.66673Z" fill="#763E1A" stroke="#763E1A" stroke-width="0.3378" stroke-linecap="round" stroke-linejoin="round"/>
<path id="Vector_26" d="M1 5.16667L1.93222 9.66667L1.33294 10.1L2.19857 10.7667L1.5327 11.3L2.43163 12.1L1.86564 12.5L3.1308 13.9667L8.89061 12.3L12.9524 8.86667L2.36504 1L1 5.16667Z" fill="#763E1A" stroke="#763E1A" stroke-width="0.3378" stroke-linecap="round" stroke-linejoin="round"/>
</g>
<path id="Vector_27" d="M26.8358 13.9667L21.1093 12.3L22.8406 14.9333L20.2437 19.9667L23.6729 19.9333H28.7668L26.8358 13.9667Z" fill="#F5841F" stroke="#F5841F" stroke-width="0.3378" stroke-linecap="round" stroke-linejoin="round"/>
<path id="Vector_28" d="M8.89046 12.3L3.13065 13.9667L1.23291 19.9333H6.32685L9.7228 19.9667L7.15919 14.9333L8.89046 12.3Z" fill="#F5841F" stroke="#F5841F" stroke-width="0.3378" stroke-linecap="round" stroke-linejoin="round"/>
<path id="Vector_29" d="M16.6814 15.1999L17.0476 8.86659L18.7123 4.33325H11.2878L12.9525 8.86659L13.3188 15.1999L13.4519 17.1999V22.1333H16.515V17.1999L16.6814 15.1999Z" fill="#F5841F" stroke="#F5841F" stroke-width="0.3378" stroke-linecap="round" stroke-linejoin="round"/>
</g>
</g>
</svg>
