<svg width="45" height="45" viewBox="0 0 45 45" fill="none" xmlns="http://www.w3.org/2000/svg">
<path d="M22.5 0C34.925 0 45 10.075 45 22.5C45 34.925 34.925 45 22.5 45C10.075 45 0 34.9313 0 22.5C0 10.0688 10.075 0 22.5 0Z" fill="#26A17B"/>
<path d="M26.1872 18.368V15.018H33.8435V9.918H12.9997V15.018H20.656V18.368C14.4372 18.6555 9.75595 19.8868 9.75595 21.3618C9.75595 22.8368 14.4372 24.068 20.656 24.3555V35.0743H26.1935V24.3555C32.406 24.068 37.0747 22.8368 37.0747 21.3618C37.0685 19.8868 32.3997 18.6555 26.1872 18.368ZM26.1935 23.4493C26.0372 23.4555 25.2372 23.5055 23.4497 23.5055C22.0185 23.5055 21.0185 23.468 20.6622 23.4493V23.4555C15.1685 23.2118 11.0622 22.2555 11.0622 21.1118C11.0622 19.968 15.1622 19.0118 20.6622 18.768V22.493C21.0247 22.518 22.0497 22.5805 23.4747 22.5805C25.181 22.5805 26.0372 22.5118 26.1997 22.493V18.7555C31.6872 18.9993 35.781 19.9555 35.781 21.0993C35.7684 22.243 31.6747 23.1993 26.1935 23.4493Z" fill="white"/>
</svg>
